:FULLY-SPECIFIED
:FORCE-ALL-JOINTS-BE-3DOF
:DEGREES
883
root 3.85195 16.5305 30.5312 -10.8246 23.6768 359.35
lfemur -15.8095 19.9983 -19.0116
ltibia 40.4913 0 0
lfoot -12.9326 0.0690648 0
ltoes -1.37978 0 0
rfemur -80.7132 -24.4467 36.5168
rtibia 101.126 0 0
rfoot 19.264 26.205 0
rtoes -8.14353 0 0
lowerback 15.0059 -4.01209 -6.64789
upperback 4.97444 -6.28636 -2.38034
thorax -2.64296 -3.11384 2.26165
lowerneck -7.71871 -3.24517 1.71638
upperneck 4.65939 -4.84264 4.94114
head 2.93726 -2.18998 1.06474
lclavicle -3.12092e-14 -4.77083e-15 0
lhumerus -33.0312 -40.5423 88.3441
lradius 60.5977 0 0
lwrist 19.6497 0 0
lhand 25.8347 11.8689 0
lfingers 7.12502 0 0
lthumb 49.9264 33.1302 0
rclavicle -3.12092e-14 -4.77083e-15 0
rhumerus -49.2556 -29.6742 -46.9493
rradius 72.2992 0 0
rwrist -23.3678 0 0
rhand -47.7649 -54.4874 0
rfingers 7.12502 0 0
rthumb -20.4424 -803.431 0
884
root 3.83986 16.5227 30.5917 -10.3517 23.5362 359.417
lfemur -16.2733 20.2223 -18.8722
ltibia 40.932 0 0
lfoot -13.0382 -0.0112959 0
ltoes -0.806262 0 0
rfemur -78.0892 -23.831 34.6711
rtibia 99.8762 0 0
rfoot 18.5526 23.868 0
rtoes -5.91208 0 0
lowerback 14.4684 -3.91114 -6.49045
upperback 4.75647 -6.11519 -2.37909
thorax -2.595 -3.02863 2.13439
lowerneck -7.68224 -3.40586 1.54575
upperneck 4.64637 -5.04025 4.94586
head 2.93915 -2.29193 1.0863
lclavicle -2.98301e-14 -3.48346e-15 0
lhumerus -33.9158 -40.3868 89.3751
lradius 60.5994 0 0
lwrist 19.3418 0 0
lhand 26.0255 12.1078 0
lfingers 7.12502 0 0
lthumb 50.0996 33.2675 0
rclavicle -2.98301e-14 -3.48346e-15 0
rhumerus -49.0754 -27.5416 -49.2793
rradius 74.3059 0 0
rwrist -22.7115 0 0
rhand -44.8942 -52.1362 0
rfingers 7.12502 0 0
rthumb -17.6826 -800.936 0
885
root 3.82776 16.515 30.6522 -9.87887 23.3956 359.484
lfemur -16.737 20.4463 -18.7327
ltibia 41.3728 0 0
lfoot -13.1439 -0.0916566 0
ltoes -0.232744 0 0
rfemur -75.4652 -23.2153 32.8254
rtibia 98.6263 0 0
rfoot 17.8413 21.5309 0
rtoes -3.68063 0 0
lowerback 13.931 -3.81019 -6.33301
upperback 4.53849 -5.94402 -2.37784
thorax -2.54703 -2.94342 2.00714
lowerneck -7.64578 -3.56655 1.37513
upperneck 4.63336 -5.23786 4.95058
head 2.94104 -2.39388 1.10785
lclavicle -2.84511e-14 -2.19609e-15 0
lhumerus -34.8003 -40.2313 90.4061
lradius 60.601 0 0
lwrist 19.0339 0 0
lhand 26.2163 12.3467 0
lfingers 7.12502 0 0
lthumb 50.2729 33.4048 0
rclavicle -2.84511e-14 -2.19609e-15 0
rhumerus -48.8952 -25.4091 -51.6093
rradius 76.3125 0 0
rwrist -22.0551 0 0
rhand -42.0235 -49.7851 0
rfingers 7.12502 0 0
rthumb -14.9229 -798.442 0
886
root 3.81567 16.5072 30.7127 -9.40601 23.2549 359.551
lfemur -17.2008 20.6703 -18.5933
ltibia 41.8135 0 0
lfoot -13.2495 -0.172017 0
ltoes 0.340774 0 0
rfemur -72.8412 -22.5996 30.9797
rtibia 97.3765 0 0
rfoot 17.1299 19.1939 0
rtoes -1.44918 0 0
lowerback 13.3935 -3.70924 -6.17558
upperback 4.32052 -5.77285 -2.37659
thorax -2.49907 -2.85821 1.87988
lowerneck -7.60931 -3.72724 1.2045
upperneck 4.62034 -5.43547 4.9553
head 2.94293 -2.49583 1.12941
lclavicle -2.7072e-14 -9.08726e-16 0
lhumerus -35.6849 -40.0759 91.4371
lradius 60.6027 0 0
lwrist 18.7259 0 0
lhand 26.4071 12.5856 0
lfingers 7.12502 0 0
lthumb 50.4461 33.5421 0
rclavicle -2.7072e-14 -9.08726e-16 0
rhumerus -48.715 -23.2765 -53.9393
rradius 78.3192 0 0
rwrist -21.3988 0 0
rhand -39.1527 -47.4339 0
rfingers 7.12502 0 0
rthumb -12.1631 -795.947 0
887
root 3.80358 16.4994 30.7732 -8.93315 23.1143 359.618
lfemur -17.6646 20.8942 -18.4539
ltibia 42.2543 0 0
lfoot -13.3552 -0.252378 0
ltoes 0.914292 0 0
rfemur -70.2171 -21.9838 29.1341
rtibia 96.1267 0 0
rfoot 16.4185 16.8568 0
rtoes 0.782266 0 0
lowerback 12.8561 -3.60829 -6.01814
upperback 4.10255 -5.60168 -2.37533
thorax -2.45111 -2.77301 1.75263
lowerneck -7.57285 -3.88793 1.03387
upperneck 4.60733 -5.63308 4.96002
head 2.94482 -2.59778 1.15097
lclavicle -2.56929e-14 3.78642e-16 0
lhumerus -36.5694 -39.9204 92.4681
lradius 60.6043 0 0
lwrist 18.418 0 0
lhand 26.598 12.8244 0
lfingers 7.12502 0 0
lthumb 50.6194 33.6794 0
rclavicle -2.56929e-14 3.78642e-16 0
rhumerus -48.5348 -21.144 -56.2693
rradius 80.3258 0 0
rwrist -20.7424 0 0
rhand -36.282 -45.0827 0
rfingers 7.12502 0 0
rthumb -9.40333 -793.452 0
888
root 3.79148 16.4916 30.8337 -8.46028 22.9737 359.685
lfemur -18.1284 21.1182 -18.3145
ltibia 42.695 0 0
lfoot -13.4608 -0.332739 0
ltoes 1.48781 0 0
rfemur -67.5931 -21.3681 27.2884
rtibia 94.8769 0 0
rfoot 15.7072 14.5198 0
rtoes 3.01372 0 0
lowerback 12.3186 -3.50734 -5.8607
upperback 3.88457 -5.43051 -2.37408
thorax -2.40315 -2.6878 1.62537
lowerneck -7.53638 -4.04862 0.863244
upperneck 4.59431 -5.83069 4.96474
head 2.94671 -2.69973 1.17252
lclavicle -2.43139e-14 1.66601e-15 0
lhumerus -37.454 -39.7649 93.4991
lradius 60.606 0 0
lwrist 18.1101 0 0
lhand 26.7888 13.0633 0
lfingers 7.12502 0 0
lthumb 50.7926 33.8167 0
rclavicle -2.43139e-14 1.66601e-15 0
rhumerus -48.3546 -19.0114 -58.5993
rradius 82.3325 0 0
rwrist -20.0861 0 0
rhand -33.4113 -42.7316 0
rfingers 7.12502 0 0
rthumb -6.64357 -790.958 0
889
root 3.77939 16.4839 30.8942 -7.98742 22.8331 359.751
lfemur -18.5921 21.3422 -18.175
ltibia 43.1357 0 0
lfoot -13.5665 -0.413099 0
ltoes 2.06133 0 0
rfemur -64.9691 -20.7524 25.4427
rtibia 93.627 0 0
rfoot 14.9958 12.1827 0
rtoes 5.24516 0 0
lowerback 11.7812 -3.40639 -5.70326
upperback 3.6666 -5.25934 -2.37283
thorax -2.35518 -2.60259 1.49812
lowerneck -7.49991 -4.20931 0.692617
upperneck 4.58129 -6.0283 4.96946
head 2.94861 -2.80169 1.19408
lclavicle -2.29348e-14 2.95338e-15 0
lhumerus -38.3385 -39.6094 94.5301
lradius 60.6076 0 0
lwrist 17.8022 0 0
lhand 26.9796 13.3022 0
lfingers 7.12502 0 0
lthumb 50.9659 33.9541 0
rclavicle -2.29348e-14 2.95338e-15 0
rhumerus -48.1744 -16.8789 -60.9293
rradius 84.3391 0 0
rwrist -19.4297 0 0
rhand -30.5406 -40.3804 0
rfingers 7.12502 0 0
rthumb -3.8838 -788.463 0
890
root 3.7673 16.4761 30.9547 -7.51456 22.6924 359.818
lfemur -19.0559 21.5662 -18.0356
ltibia 43.5765 0 0
lfoot -13.6721 -0.49346 0
ltoes 2.63485 0 0
rfemur -62.3451 -20.1367 23.597
rtibia 92.3772 0 0
rfoot 14.2844 9.8457 0
rtoes 7.47661 0 0
lowerback 11.2437 -3.30544 -5.54582
upperback 3.44862 -5.08817 -2.37158
thorax -2.30722 -2.51738 1.37086
lowerneck -7.46345 -4.37 0.52199
upperneck 4.56828 -6.22591 4.97418
head 2.9505 -2.90364 1.21564
lclavicle -2.15557e-14 4.24075e-15 0
lhumerus -39.2231 -39.4539 95.5611
lradius 60.6093 0 0
lwrist 17.4942 0 0
lhand 27.1704 13.5411 0
lfingers 7.12502 0 0
lthumb 51.1391 34.0914 0
rclavicle -2.15557e-14 4.24075e-15 0
rhumerus -47.9942 -14.7463 -63.2593
rradius 86.3458 0 0
rwrist -18.7734 0 0
rhand -27.6698 -38.0293 0
rfingers 7.12502 0 0
rthumb -1.12403 -785.968 0
891
root 3.7552 16.4683 31.0152 -7.04169 22.5518 359.885
lfemur -19.5197 21.7902 -17.8962
ltibia 44.0172 0 0
lfoot -13.7778 -0.573821 0
ltoes 3.20836 0 0
rfemur -59.7211 -19.521 21.7513
rtibia 91.1274 0 0
rfoot 13.5731 7.50866 0
rtoes 9.70806 0 0
lowerback 10.7062 -3.20449 -5.38839
upperback 3.23065 -4.917 -2.37033
thorax -2.25926 -2.43217 1.2436
lowerneck -7.42698 -4.53069 0.351363
upperneck 4.55526 -6.42352 4.9789
head 2.95239 -3.00559 1.23719
lclavicle -2.01766e-14 5.52811e-15 0
lhumerus -40.1077 -39.2985 96.5921
lradius 60.611 0 0
lwrist 17.1863 0 0
lhand 27.3612 13.78 0
lfingers 7.12502 0 0
lthumb 51.3124 34.2287 0
rclavicle -2.01766e-14 5.52811e-15 0
rhumerus -47.814 -12.6137 -65.5893
rradius 88.3525 0 0
rwrist -18.117 0 0
rhand -24.7991 -35.6781 0
rfingers 7.12502 0 0
rthumb 1.63573 -783.474 0
892
root 3.74311 16.4606 31.0757 -6.56883 22.4112 359.952
lfemur -19.9834 22.0142 -17.7567
ltibia 44.4579 0 0
lfoot -13.8834 -0.654182 0
ltoes 3.78188 0 0
rfemur -57.0971 -18.9053 19.9056
rtibia 89.8775 0 0
rfoot 12.8617 5.17161 0
rtoes 11.9395 0 0
lowerback 10.1688 -3.10354 -5.23095
upperback 3.01268 -4.74583 -2.36908
thorax -2.21129 -2.34696 1.11635
lowerneck -7.39051 -4.69138 0.180736
upperneck 4.54224 -6.62113 4.98362
head 2.95428 -3.10754 1.25875
lclavicle -1.87976e-14 6.81548e-15 0
lhumerus -40.9922 -39.143 97.6231
lradius 60.6126 0 0
lwrist 16.8784 0 0
lhand 27.552 14.0189 0
lfingers 7.12502 0 0
lthumb 51.4856 34.366 0
rclavicle -1.87976e-14 6.81548e-15 0
rhumerus -47.6338 -10.4812 -67.9193
rradius 90.3591 0 0
rwrist -17.4607 0 0
rhand -21.9284 -33.3269 0
rfingers 7.12502 0 0
rthumb 4.3955 -780.979 0
893
root 3.73102 16.4528 31.1362 -6.09597 22.2706 360.019
lfemur -20.4472 22.2382 -17.6173
ltibia 44.8987 0 0
lfoot -13.9891 -0.734542 0
ltoes 4.3554 0 0
rfemur -54.4731 -18.2896 18.0599
rtibia 88.6277 0 0
rfoot 12.1504 2.83457 0
rtoes 14.171 0 0
lowerback 9.63132 -3.00259 -5.07351
upperback 2.7947 -4.57466 -2.36783
thorax -2.16333 -2.26175 0.989092
lowerneck -7.35405 -4.85207 0.0101086
upperneck 4.52923 -6.81874 4.98834
head 2.95617 -3.20949 1.28031
lclavicle -1.74185e-14 8.10285e-15 0
lhumerus -41.8768 -38.9875 98.6541
lradius 60.6143 0 0
lwrist 16.5705 0 0
lhand 27.7428 14.2578 0
lfingers 7.12502 0 0
lthumb 51.6589 34.5033 0
rclavicle -1.74185e-14 8.10285e-15 0
rhumerus -47.4536 -8.34863 -70.2493
rradius 92.3658 0 0
rwrist -16.8043 0 0
rhand -19.0577 -30.9758 0
rfingers 7.12502 0 0
rthumb 7.15527 -778.484 0
894
root 3.71892 16.445 31.1968 -5.6231 22.1299 360.086
lfemur -20.911 22.4621 -17.4779
ltibia 45.3394 0 0
lfoot -14.0947 -0.814903 0
ltoes 4.92892 0 0
rfemur -51.849 -17.6738 16.2142
rtibia 87.3779 0 0
rfoot 11.439 0.497529 0
rtoes 16.4024 0 0
lowerback 9.09386 -2.90163 -4.91607
upperback 2.57673 -4.40349 -2.36657
thorax -2.11537 -2.17655 0.861836
lowerneck -7.31758 -5.01275 -0.160519
upperneck 4.51621 -7.01635 4.99306
head 2.95806 -3.31144 1.30186
lclavicle -1.60394e-14 9.39022e-15 0
lhumerus -42.7613 -38.832 99.685
lradius 60.6159 0 0
lwrist 16.2625 0 0
lhand 27.9337 14.4966 0
lfingers 7.12502 0 0
lthumb 51.8321 34.6406 0
rclavicle -1.60394e-14 9.39022e-15 0
rhumerus -47.2735 -6.21607 -72.5794
rradius 94.3724 0 0
rwrist -16.148 0 0
rhand -16.1869 -28.6246 0
rfingers 7.12502 0 0
rthumb 9.91503 -775.99 0
895
root 3.70683 16.4372 31.2573 -5.15024 21.9893 360.153
lfemur -21.3748 22.6861 -17.3385
ltibia 45.7802 0 0
lfoot -14.2004 -0.895264 0
ltoes 5.50244 0 0
rfemur -49.225 -17.0581 14.3686
rtibia 86.1281 0 0
rfoot 10.7276 -1.83951 0
rtoes 18.6339 0 0
lowerback 8.5564 -2.80068 -4.75863
upperback 2.35876 -4.23232 -2.36532
thorax -2.06741 -2.09134 0.73458
lowerneck -7.28112 -5.17344 -0.331146
upperneck 4.5032 -7.21396 4.99778
head 2.95995 -3.41339 1.32342
lclavicle -1.46604e-14 1.06776e-14 0
lhumerus -43.6459 -38.6765 100.716
lradius 60.6176 0 0
lwrist 15.9546 0 0
lhand 28.1245 14.7355 0
lfingers 7.12502 0 0
lthumb 52.0054 34.7779 0
rclavicle -1.46604e-14 1.06776e-14 0
rhumerus -47.0933 -4.08351 -74.9094
rradius 96.3791 0 0
rwrist -15.4916 0 0
rhand -13.3162 -26.2734 0
rfingers 7.12502 0 0
rthumb 12.6748 -773.495 0
896
root 3.69474 16.4295 31.3178 -4.67738 21.8487 360.22
lfemur -21.8385 22.9101 -17.199
ltibia 46.2209 0 0
lfoot -14.306 -0.975624 0
ltoes 6.07596 0 0
rfemur -46.601 -16.4424 12.5229
rtibia 84.8782 0 0
rfoot 10.0163 -4.17656 0
rtoes 20.8653 0 0
lowerback 8.01894 -2.69973 -4.60119
upperback 2.14078 -4.06115 -2.36407
thorax -2.01944 -2.00613 0.607324
lowerneck -7.24465 -5.33413 -0.501773
upperneck 4.49018 -7.41157 5.0025
head 2.96184 -3.51534 1.34498
lclavicle -1.32813e-14 1.1965e-14 0
lhumerus -44.5304 -38.521 101.747
lradius 60.6192 0 0
lwrist 15.6467 0 0
lhand 28.3153 14.9744 0
lfingers 7.12502 0 0
lthumb 52.1786 34.9152 0
rclavicle -1.32813e-14 1.1965e-14 0
rhumerus -46.9131 -1.95096 -77.2394
rradius 98.3857 0 0
rwrist -14.8353 0 0
rhand -10.4455 -23.9223 0
rfingers 7.12502 0 0
rthumb 15.4346 -771 0
